<svg width="39" height="39" viewBox="0 0 39 39" fill="none" xmlns="http://www.w3.org/2000/svg">
<g filter="url(#filter0_d)">
<path d="M30.6519 1.71165C26.6784 5.38834 23.0331 9.28891 19.9543 13.8534C18.5962 15.867 17.5287 18.1041 16.5421 20.3416C16.0783 21.3948 15.8012 22.4904 15.5406 23.586C13.6455 21.7036 11.8009 19.7676 9.72046 18.0941C8.23704 16.9015 3.2579 20.6416 4.99673 22.041C8.11321 24.5466 10.7086 27.6658 13.7373 30.2827C15.0056 31.3761 17.8161 29.0029 18.4745 28.0054C20.6421 24.7247 20.9382 20.711 22.5187 17.1308C24.9314 11.656 29.2093 7.16163 33.4315 3.25224C36.5841 0.336468 32.7752 -0.252973 30.653 1.70944" fill="#37B34A"/>
</g>
<defs>
<filter id="filter0_d" x="0.632931" y="0.564438" width="38" height="38" filterUnits="userSpaceOnUse" color-interpolation-filters="sRGB">
<feFlood flood-opacity="0" result="BackgroundImageFix"/>
<feColorMatrix in="SourceAlpha" type="matrix" values="0 0 0 0 0 0 0 0 0 0 0 0 0 0 0 0 0 0 127 0"/>
<feOffset dy="4"/>
<feGaussianBlur stdDeviation="2"/>
<feColorMatrix type="matrix" values="0 0 0 0 0 0 0 0 0 0 0 0 0 0 0 0 0 0 0.25 0"/>
<feBlend mode="normal" in2="BackgroundImageFix" result="effect1_dropShadow"/>
<feBlend mode="normal" in="SourceGraphic" in2="effect1_dropShadow" result="shape"/>
</filter>
</defs>
</svg>
