<svg width="30" height="30" viewBox="0 0 30 30" fill="none" xmlns="http://www.w3.org/2000/svg">
<path d="M29.6621 25.782C30.6234 27.6567 29.4167 30 27.4966 30H2.50254C0.578739 30 -0.622406 27.653 0.337072 25.782L12.8343 1.40537C13.7961 -0.470156 16.2051 -0.466758 17.1652 1.40537L29.6621 25.782ZM14.9997 20.7422C13.6765 20.7422 12.6039 21.9489 12.6039 23.4375C12.6039 24.9261 13.6765 26.1328 14.9997 26.1328C16.3229 26.1328 17.3956 24.9261 17.3956 23.4375C17.3956 21.9489 16.3229 20.7422 14.9997 20.7422ZM12.7251 11.0539L13.1114 19.0227C13.1295 19.3956 13.4036 19.6875 13.7355 19.6875H16.2639C16.5959 19.6875 16.8699 19.3956 16.888 19.0227L17.2744 11.0539C17.2939 10.6512 17.0088 10.3125 16.6503 10.3125H13.3491C12.9906 10.3125 12.7056 10.6512 12.7251 11.0539Z" fill="gold"/>
</svg>
